<mxfile host="app.diagrams.net" modified="2021-03-30T19:50:57.258Z" agent="5.0 (Windows NT 10.0; Win64; x64) AppleWebKit/537.36 (KHTML, like Gecko) Chrome/89.0.4389.90 Safari/537.36" etag="2tAzATdzZCv2XuoW9aaX" version="14.5.3" type="github">
  <diagram id="YLBtO4QyQiUHlF8-_b-x" name="Page-1">
    <mxGraphModel dx="2076" dy="2196" grid="1" gridSize="10" guides="1" tooltips="1" connect="1" arrows="1" fold="1" page="1" pageScale="1" pageWidth="850" pageHeight="1100" math="0" shadow="0">
      <root>
        <mxCell id="0" />
        <mxCell id="1" parent="0" />
        <mxCell id="7uROpiLHr8Zym426xmD7-12" style="edgeStyle=orthogonalEdgeStyle;rounded=0;orthogonalLoop=1;jettySize=auto;html=1;exitX=1;exitY=0.75;exitDx=0;exitDy=0;" edge="1" parent="1" source="NjoRCPoegAAiFyBmC-Th-3" target="NjoRCPoegAAiFyBmC-Th-34">
          <mxGeometry relative="1" as="geometry" />
        </mxCell>
        <mxCell id="NjoRCPoegAAiFyBmC-Th-3" value="" style="rounded=1;arcSize=10;dashed=0;fillColor=none;gradientColor=none;strokeWidth=2;" parent="1" vertex="1">
          <mxGeometry x="130" y="90" width="1530" height="730" as="geometry" />
        </mxCell>
        <mxCell id="NjoRCPoegAAiFyBmC-Th-4" value="" style="dashed=0;html=1;shape=mxgraph.aws3.virtual_private_cloud;fillColor=#F58536;gradientColor=none;dashed=0;" parent="1" vertex="1">
          <mxGeometry x="118" y="90" width="52" height="36" as="geometry" />
        </mxCell>
        <mxCell id="NjoRCPoegAAiFyBmC-Th-5" value="" style="rounded=1;arcSize=10;dashed=1;strokeColor=#F59D56;fillColor=none;gradientColor=none;dashPattern=8 4;strokeWidth=2;" parent="1" vertex="1">
          <mxGeometry x="170" y="10" width="460" height="950" as="geometry" />
        </mxCell>
        <mxCell id="NjoRCPoegAAiFyBmC-Th-6" value="" style="rounded=1;arcSize=10;dashed=1;strokeColor=#F59D56;fillColor=none;gradientColor=none;dashPattern=8 4;strokeWidth=2;" parent="1" vertex="1">
          <mxGeometry x="640.25" y="21.5" width="494.5" height="937" as="geometry" />
        </mxCell>
        <mxCell id="NjoRCPoegAAiFyBmC-Th-7" value="" style="rounded=1;arcSize=10;dashed=1;strokeColor=#F59D56;fillColor=none;gradientColor=none;dashPattern=8 4;strokeWidth=2;" parent="1" vertex="1">
          <mxGeometry x="1150" y="17.5" width="410" height="942.5" as="geometry" />
        </mxCell>
        <mxCell id="NjoRCPoegAAiFyBmC-Th-8" value="" style="rounded=1;arcSize=10;dashed=0;fillColor=none;gradientColor=none;strokeWidth=2;" parent="1" vertex="1">
          <mxGeometry x="390" y="110" width="200" height="200" as="geometry" />
        </mxCell>
        <mxCell id="NjoRCPoegAAiFyBmC-Th-12" value="" style="rounded=1;arcSize=10;dashed=0;fillColor=none;gradientColor=none;strokeWidth=2;" parent="1" vertex="1">
          <mxGeometry x="190" y="330" width="200" height="200" as="geometry" />
        </mxCell>
        <mxCell id="NjoRCPoegAAiFyBmC-Th-15" value="" style="outlineConnect=0;dashed=0;verticalLabelPosition=bottom;verticalAlign=top;align=center;html=1;shape=mxgraph.aws3.rds_db_instance;fillColor=#2E73B8;gradientColor=none;" parent="1" vertex="1">
          <mxGeometry x="535.5" y="550" width="54.5" height="70" as="geometry" />
        </mxCell>
        <mxCell id="NjoRCPoegAAiFyBmC-Th-17" value="" style="outlineConnect=0;dashed=0;verticalLabelPosition=bottom;verticalAlign=top;align=center;html=1;shape=mxgraph.aws3.instances;fillColor=#F58534;gradientColor=none;" parent="1" vertex="1">
          <mxGeometry x="210" y="338.5" width="60" height="63" as="geometry" />
        </mxCell>
        <mxCell id="NjoRCPoegAAiFyBmC-Th-18" value="" style="rounded=1;arcSize=10;dashed=0;fillColor=none;gradientColor=none;strokeWidth=2;" parent="1" vertex="1">
          <mxGeometry x="799.99" y="104.13" width="210.01" height="205.87" as="geometry" />
        </mxCell>
        <mxCell id="NjoRCPoegAAiFyBmC-Th-20" value="" style="rounded=1;arcSize=10;dashed=0;fillColor=none;gradientColor=none;strokeWidth=2;" parent="1" vertex="1">
          <mxGeometry x="880" y="462.5" width="200" height="200" as="geometry" />
        </mxCell>
        <mxCell id="NjoRCPoegAAiFyBmC-Th-22" value="" style="rounded=1;arcSize=10;dashed=0;fillColor=none;gradientColor=none;strokeWidth=2;" parent="1" vertex="1">
          <mxGeometry x="1330" y="128.5" width="200" height="201.5" as="geometry" />
        </mxCell>
        <mxCell id="NjoRCPoegAAiFyBmC-Th-25" value="" style="dashed=0;html=1;shape=mxgraph.aws3.permissions;fillColor=#D9A741;gradientColor=none;dashed=0;" parent="1" vertex="1">
          <mxGeometry x="872.5" y="445" width="30" height="35" as="geometry" />
        </mxCell>
        <mxCell id="NjoRCPoegAAiFyBmC-Th-26" value="" style="outlineConnect=0;dashed=0;verticalLabelPosition=bottom;verticalAlign=top;align=center;html=1;shape=mxgraph.aws3.rds_db_instance_read_replica;fillColor=#2E73B8;gradientColor=none;" parent="1" vertex="1">
          <mxGeometry x="1010" y="480" width="50" height="70" as="geometry" />
        </mxCell>
        <mxCell id="NjoRCPoegAAiFyBmC-Th-29" value="" style="outlineConnect=0;dashed=0;verticalLabelPosition=bottom;verticalAlign=top;align=center;html=1;shape=mxgraph.aws3.instances;fillColor=#F58534;gradientColor=none;" parent="1" vertex="1">
          <mxGeometry x="1210" y="-120" width="60" height="58" as="geometry" />
        </mxCell>
        <mxCell id="NjoRCPoegAAiFyBmC-Th-30" value="" style="outlineConnect=0;dashed=0;verticalLabelPosition=bottom;verticalAlign=top;align=center;html=1;shape=mxgraph.aws3.elastic_load_balancing;fillColor=#F58534;gradientColor=none;" parent="1" vertex="1">
          <mxGeometry x="830" y="-210" width="68" height="70" as="geometry" />
        </mxCell>
        <mxCell id="NjoRCPoegAAiFyBmC-Th-49" style="edgeStyle=orthogonalEdgeStyle;rounded=0;orthogonalLoop=1;jettySize=auto;html=1;exitX=0.5;exitY=1;exitDx=0;exitDy=0;exitPerimeter=0;" parent="1" source="NjoRCPoegAAiFyBmC-Th-32" target="NjoRCPoegAAiFyBmC-Th-33" edge="1">
          <mxGeometry relative="1" as="geometry" />
        </mxCell>
        <mxCell id="NjoRCPoegAAiFyBmC-Th-32" value="" style="outlineConnect=0;dashed=0;verticalLabelPosition=bottom;verticalAlign=top;align=center;html=1;shape=mxgraph.aws3.user;fillColor=#D2D3D3;gradientColor=none;" parent="1" vertex="1">
          <mxGeometry x="841" y="-470" width="45" height="63" as="geometry" />
        </mxCell>
        <mxCell id="NjoRCPoegAAiFyBmC-Th-50" style="edgeStyle=orthogonalEdgeStyle;rounded=0;orthogonalLoop=1;jettySize=auto;html=1;exitX=0.5;exitY=1;exitDx=0;exitDy=0;exitPerimeter=0;" parent="1" source="NjoRCPoegAAiFyBmC-Th-33" target="NjoRCPoegAAiFyBmC-Th-30" edge="1">
          <mxGeometry relative="1" as="geometry" />
        </mxCell>
        <mxCell id="NjoRCPoegAAiFyBmC-Th-33" value="" style="outlineConnect=0;dashed=0;verticalLabelPosition=bottom;verticalAlign=top;align=center;html=1;shape=mxgraph.aws3.route_53;fillColor=#F58536;gradientColor=none;" parent="1" vertex="1">
          <mxGeometry x="830" y="-320" width="69.75" height="70" as="geometry" />
        </mxCell>
        <mxCell id="NjoRCPoegAAiFyBmC-Th-71" style="edgeStyle=orthogonalEdgeStyle;rounded=0;orthogonalLoop=1;jettySize=auto;html=1;exitX=0.5;exitY=0;exitDx=0;exitDy=0;exitPerimeter=0;entryX=1;entryY=0.5;entryDx=0;entryDy=0;entryPerimeter=0;" parent="1" source="NjoRCPoegAAiFyBmC-Th-34" target="NjoRCPoegAAiFyBmC-Th-35" edge="1">
          <mxGeometry relative="1" as="geometry" />
        </mxCell>
        <mxCell id="NjoRCPoegAAiFyBmC-Th-34" value="" style="outlineConnect=0;dashed=0;verticalLabelPosition=bottom;verticalAlign=top;align=center;html=1;shape=mxgraph.aws3.volume;fillColor=#E05243;gradientColor=none;" parent="1" vertex="1">
          <mxGeometry x="1802.5" y="600" width="52.5" height="75" as="geometry" />
        </mxCell>
        <mxCell id="NjoRCPoegAAiFyBmC-Th-35" value="" style="outlineConnect=0;dashed=0;verticalLabelPosition=bottom;verticalAlign=top;align=center;html=1;shape=mxgraph.aws3.s3;fillColor=#E05243;gradientColor=none;" parent="1" vertex="1">
          <mxGeometry x="1720" y="290" width="76.5" height="93" as="geometry" />
        </mxCell>
        <mxCell id="NjoRCPoegAAiFyBmC-Th-36" value="&lt;b&gt;Subnet 05a965&lt;/b&gt;" style="text;html=1;strokeColor=none;fillColor=none;align=center;verticalAlign=middle;whiteSpace=wrap;rounded=0;" parent="1" vertex="1">
          <mxGeometry x="245" y="532" width="90" height="18" as="geometry" />
        </mxCell>
        <mxCell id="NjoRCPoegAAiFyBmC-Th-37" value="&lt;b&gt;Private Subnet 0c23&lt;/b&gt;" style="text;html=1;strokeColor=none;fillColor=none;align=center;verticalAlign=middle;whiteSpace=wrap;rounded=0;" parent="1" vertex="1">
          <mxGeometry x="459.69" y="729" width="120.37" height="16" as="geometry" />
        </mxCell>
        <mxCell id="NjoRCPoegAAiFyBmC-Th-38" value="&lt;b&gt;Subnet 03fd&lt;/b&gt;" style="text;html=1;strokeColor=none;fillColor=none;align=center;verticalAlign=middle;whiteSpace=wrap;rounded=0;" parent="1" vertex="1">
          <mxGeometry x="455.5" y="320" width="80" height="10" as="geometry" />
        </mxCell>
        <mxCell id="NjoRCPoegAAiFyBmC-Th-39" value="&lt;b&gt;Subnet 0297&lt;/b&gt;" style="text;html=1;strokeColor=none;fillColor=none;align=center;verticalAlign=middle;whiteSpace=wrap;rounded=0;" parent="1" vertex="1">
          <mxGeometry x="880" y="315" width="78" height="15" as="geometry" />
        </mxCell>
        <mxCell id="NjoRCPoegAAiFyBmC-Th-40" value="&lt;b&gt;Private Subnet 0312&lt;/b&gt;" style="text;html=1;strokeColor=none;fillColor=none;align=center;verticalAlign=middle;whiteSpace=wrap;rounded=0;" parent="1" vertex="1">
          <mxGeometry x="915" y="675" width="130" height="15" as="geometry" />
        </mxCell>
        <mxCell id="NjoRCPoegAAiFyBmC-Th-41" value="&lt;b&gt;Subnet 01ab&lt;/b&gt;" style="text;html=1;strokeColor=none;fillColor=none;align=center;verticalAlign=middle;whiteSpace=wrap;rounded=0;" parent="1" vertex="1">
          <mxGeometry x="1390" y="338.5" width="80" height="16" as="geometry" />
        </mxCell>
        <mxCell id="NjoRCPoegAAiFyBmC-Th-42" value="&lt;b&gt;Private Subnet 03b5&lt;/b&gt;" style="text;html=1;strokeColor=none;fillColor=none;align=center;verticalAlign=middle;whiteSpace=wrap;rounded=0;" parent="1" vertex="1">
          <mxGeometry x="1350" y="745" width="120" height="10" as="geometry" />
        </mxCell>
        <mxCell id="NjoRCPoegAAiFyBmC-Th-46" value="" style="outlineConnect=0;dashed=0;verticalLabelPosition=bottom;verticalAlign=top;align=center;html=1;shape=mxgraph.aws3.auto_scaling;fillColor=#F58534;gradientColor=none;" parent="1" vertex="1">
          <mxGeometry x="825.5" y="-90" width="69" height="66" as="geometry" />
        </mxCell>
        <mxCell id="NjoRCPoegAAiFyBmC-Th-47" value="&lt;b&gt;S3/ Log Storage&lt;/b&gt;" style="text;html=1;strokeColor=none;fillColor=none;align=center;verticalAlign=middle;whiteSpace=wrap;rounded=0;" parent="1" vertex="1">
          <mxGeometry x="1704.5" y="381.5" width="107.5" height="20" as="geometry" />
        </mxCell>
        <mxCell id="NjoRCPoegAAiFyBmC-Th-48" value="&lt;b&gt;EBS&lt;/b&gt;" style="text;html=1;strokeColor=none;fillColor=none;align=center;verticalAlign=middle;whiteSpace=wrap;rounded=0;" parent="1" vertex="1">
          <mxGeometry x="1808.75" y="675" width="40" height="20" as="geometry" />
        </mxCell>
        <mxCell id="NjoRCPoegAAiFyBmC-Th-60" value="" style="outlineConnect=0;dashed=0;verticalLabelPosition=bottom;verticalAlign=top;align=center;html=1;shape=mxgraph.aws3.cloudwatch;fillColor=#759C3E;gradientColor=none;" parent="1" vertex="1">
          <mxGeometry x="1720" y="90" width="82.5" height="93" as="geometry" />
        </mxCell>
        <mxCell id="NjoRCPoegAAiFyBmC-Th-61" value="&lt;b&gt;CloudWatch&lt;/b&gt;" style="text;html=1;strokeColor=none;fillColor=none;align=center;verticalAlign=middle;whiteSpace=wrap;rounded=0;" parent="1" vertex="1">
          <mxGeometry x="1741.25" y="180" width="40" height="20" as="geometry" />
        </mxCell>
        <mxCell id="NjoRCPoegAAiFyBmC-Th-63" value="" style="endArrow=classic;startArrow=classic;html=1;entryX=1;entryY=0;entryDx=0;entryDy=0;" parent="1" edge="1">
          <mxGeometry width="50" height="50" relative="1" as="geometry">
            <mxPoint x="1728" y="137" as="sourcePoint" />
            <mxPoint x="1560" y="137" as="targetPoint" />
          </mxGeometry>
        </mxCell>
        <mxCell id="NjoRCPoegAAiFyBmC-Th-76" value="" style="shape=image;html=1;verticalAlign=top;verticalLabelPosition=bottom;labelBackgroundColor=#ffffff;imageAspect=0;aspect=fixed;image=https://cdn2.iconfinder.com/data/icons/stilllife/48x48/filesystems/gnome-fs-nfs.png" parent="1" vertex="1">
          <mxGeometry x="425" y="630" width="80" height="80" as="geometry" />
        </mxCell>
        <mxCell id="NjoRCPoegAAiFyBmC-Th-89" value="&lt;b&gt;ELB&lt;/b&gt;" style="text;html=1;strokeColor=none;fillColor=none;align=center;verticalAlign=middle;whiteSpace=wrap;rounded=0;" parent="1" vertex="1">
          <mxGeometry x="846" y="-140" width="40" height="20" as="geometry" />
        </mxCell>
        <mxCell id="NjoRCPoegAAiFyBmC-Th-94" value="&lt;b&gt;Route53&lt;/b&gt;" style="text;html=1;strokeColor=none;fillColor=none;align=center;verticalAlign=middle;whiteSpace=wrap;rounded=0;" parent="1" vertex="1">
          <mxGeometry x="875" y="-250" width="40" height="20" as="geometry" />
        </mxCell>
        <mxCell id="NjoRCPoegAAiFyBmC-Th-96" value="&lt;b&gt;User&lt;/b&gt;" style="text;html=1;strokeColor=none;fillColor=none;align=center;verticalAlign=middle;whiteSpace=wrap;rounded=0;" parent="1" vertex="1">
          <mxGeometry x="872.5" y="-407" width="40" height="20" as="geometry" />
        </mxCell>
        <mxCell id="7uROpiLHr8Zym426xmD7-7" value="" style="rounded=1;arcSize=10;dashed=0;fillColor=none;gradientColor=none;strokeWidth=2;" vertex="1" parent="1">
          <mxGeometry x="407.12" y="520" width="200" height="200" as="geometry" />
        </mxCell>
        <mxCell id="7uROpiLHr8Zym426xmD7-14" value="" style="shape=image;html=1;verticalAlign=top;verticalLabelPosition=bottom;labelBackgroundColor=#ffffff;imageAspect=0;aspect=fixed;image=https://cdn2.iconfinder.com/data/icons/stilllife/48x48/filesystems/gnome-fs-nfs.png" vertex="1" parent="1">
          <mxGeometry x="890" y="572" width="78" height="78" as="geometry" />
        </mxCell>
        <mxCell id="7uROpiLHr8Zym426xmD7-15" value="" style="rounded=1;arcSize=10;dashed=0;fillColor=none;gradientColor=none;strokeWidth=2;" vertex="1" parent="1">
          <mxGeometry x="1300" y="520" width="200" height="200" as="geometry" />
        </mxCell>
      </root>
    </mxGraphModel>
  </diagram>
</mxfile>
